#!OML:ASF H:\LiuWeirdWalks\Patient Classification 1\Patient 1\Session 1\male.ASF
:FULLY-SPECIFIED
:DEGREES
1372
root 2.44097 17.8884 28.625 0.234711 1.55375 1.8213
lowerback 4.20767 -0.518102 -1.16727
upperback 0.650494 -0.750516 -0.415692
thorax -1.68108 -0.368669 0.270014
lowerneck -18.5982 -2.39131 2.04257
upperneck 23.8981 -3.78318 -0.858654
head 10.7114 -1.64799 -1.19962
rclavicle 5.31128e-016 -1.78906e-015
rhumerus -44.2621 -17.2538 -75.2352
rradius 31.036
rwrist -6.00645
rhand -17.9717 -3.19801
rfingers 7.12502
rthumb 8.29763 -33.0151
lclavicle 5.31128e-016 -1.78906e-015
lhumerus -32.4009 -16.0627 90.9909
lradius 37.0862
lwrist 17.3892
lhand -14.2124 -1.69827
lfingers 7.12502
lthumb 11.9243 27.9421
rfemur -31.1133 -2.39594 14.6273
rtibia 22.8233
rfoot -12.9774 -20.423
rtoes -11.5016
lfemur 7.06419 1.11132 -26.2289
ltibia 15.7675
lfoot -11.8202 8.69586
ltoes -14.8765
1373
root 2.42883 17.8844 28.6809 0.361914 1.63653 2.01987
lowerback 4.10156 -0.592768 -1.42406
upperback 0.613322 -0.859749 -0.399515
thorax -1.65439 -0.421675 0.435509
lowerneck -18.6147 -2.35343 2.03545
upperneck 23.8965 -3.72039 -0.887335
head 10.7145 -1.62363 -1.20001
rclavicle -1.16538e-014 2.08724e-015
rhumerus -44.2531 -17.137 -75.1911
rradius 30.9854
rwrist -5.93471
rhand -17.9377 -3.15748
rfingers 7.12502
rthumb 8.33046 -32.9732
lclavicle -1.16538e-014 2.08724e-015
lhumerus -32.4289 -15.8262 91.0071
lradius 37.0305
lwrist 17.1739
lhand -14.0374 -1.7209
lfingers 7.12502
lthumb 12.0931 27.9096
rfemur -31.1605 -2.42602 14.4467
rtibia 22.5471
rfoot -13.0158 -20.5937
rtoes -11.4761
lfemur 7.2696 1.12171 -26.3669
ltibia 15.4831
lfoot -11.754 8.54415
ltoes -15.0786
1374
root 2.41598 17.881 28.737 0.477149 1.71447 2.15378
lowerback 3.99039 -0.559122 -1.43316
upperback 0.566141 -0.814828 -0.456057
thorax -1.64209 -0.399224 0.379231
lowerneck -18.5323 -2.43491 1.93773
upperneck 23.8632 -3.8249 -0.804667
head 10.6887 -1.67065 -1.16704
rclavicle -1.6319e-014 1.90833e-014
rhumerus -44.4139 -17.3423 -75.0393
rradius 30.9809
rwrist -5.87044
rhand -17.9302 -3.14601
rfingers 7.12502
rthumb 8.33773 -32.9615
lclavicle -1.6319e-014 1.90833e-014
lhumerus -32.4875 -16.0099 91.115
lradius 36.965
lwrist 17.07
lhand -13.9136 -1.75817
lfingers 7.12502
lthumb 12.2124 27.8653
rfemur -31.1712 -2.4202 14.3285
rtibia 22.2544
rfoot -13.1113 -20.7665
rtoes -11.4042
lfemur 7.4676 1.12875 -26.4305
ltibia 15.2403
lfoot -11.7062 8.39913
ltoes -15.2973
1375
root 2.40213 17.8782 28.7938 0.566207 1.79258 2.19987
lowerback 3.8851 -0.187209 -0.807669
upperback 0.517538 -0.296585 -0.741767
thorax -1.64638 -0.144895 -0.292154
lowerneck -18.3854 -2.92822 1.40613
upperneck 23.8361 -4.4942 -0.282386
head 10.6678 -1.95974 -0.984398
rclavicle 3.71168e-015 -2.78299e-015
rhumerus -45.0249 -18.5719 -74.5038
rradius 31.0975
rwrist -5.8159
rhand -17.9457 -3.11476
rfingers 7.12502
rthumb 8.32277 -32.9308
lclavicle 3.71168e-015 -2.78299e-015
lhumerus -32.5636 -17.4162 91.5266
lradius 36.8884
lwrist 17.2022
lhand -13.8352 -1.74404
lfingers 7.12502
lthumb 12.288 27.8749
rfemur -31.1394 -2.3838 14.301
rtibia 21.9697
rfoot -13.1951 -20.9446
rtoes -11.3822
lfemur 7.69127 1.13008 -26.3935
ltibia 15.0107
lfoot -11.666 8.25767
ltoes -15.5304
1376
root 2.3876 17.8755 28.8515 0.634604 1.86753 2.19773
lowerback 3.8671 -0.0813936 -0.596516
upperback 0.490162 -0.147655 -0.792797
thorax -1.66515 -0.0719466 -0.470696
lowerneck -18.4431 -3.08003 1.23643
upperneck 23.879 -4.69349 -0.151721
head 10.7009 -2.04841 -0.940009
rclavicle -1.34397e-014 2.21645e-014
rhumerus -45.2205 -18.9477 -74.2754
rradius 31.1112
rwrist -5.79369
rhand -17.9657 -3.06559
rfingers 7.12502
rthumb 8.30348 -32.8824
lclavicle -1.34397e-014 2.21645e-014
lhumerus -32.6049 -17.83 91.7206
lradius 36.8589
lwrist 17.3237
lhand -13.8243 -1.74563
lfingers 7.12502
lthumb 12.2985 27.8727
rfemur -31.0793 -2.31127 14.3158
rtibia 21.7041
rfoot -13.2508 -21.1247
rtoes -11.4172
lfemur 7.93691 1.12329 -26.302
ltibia 14.788
lfoot -11.6257 8.1223
ltoes -15.7772
1377
root 2.37319 17.8721 28.9115 0.751147 1.94818 2.38264
lowerback 3.79353 -0.0612422 -0.737862
upperback 0.493693 -0.12604 -0.809768
thorax -1.61999 -0.0603862 -0.410034
lowerneck -18.6806 -3.12348 1.1584
upperneck 23.9836 -4.73991 -0.141637
head 10.787 -2.07184 -0.936802
rclavicle 6.55368e-016 1.54058e-015
rhumerus -45.2026 -19.0337 -74.1662
rradius 31.0891
rwrist -5.79233
rhand -17.9848 -3.05611
rfingers 7.12502
rthumb 8.28499 -32.8736
lclavicle 6.55368e-016 1.54058e-015
lhumerus -32.5647 -17.9199 91.8455
lradius 36.8377
lwrist 17.5036
lhand -13.9071 -1.77495
lfingers 7.12502
lthumb 12.2186 27.8482
rfemur -31.0733 -2.28738 14.1295
rtibia 21.4746
rfoot -13.2804 -21.2458
rtoes -11.4813
lfemur 8.14213 1.10391 -26.4199
ltibia 14.5625
lfoot -11.5672 7.98679
ltoes -16.0426
